<svg xmlns="http://www.w3.org/2000/svg" viewBox="0 0 100 100">
  <defs>
    <linearGradient id="grad1" x1="0%" y1="0%" x2="100%" y2="100%">
      <stop offset="0%" style="stop-color:#667eea;stop-opacity:1" />
      <stop offset="50%" style="stop-color:#764ba2;stop-opacity:1" />
      <stop offset="100%" style="stop-color:#f093fb;stop-opacity:1" />
    </linearGradient>
    <linearGradient id="grad2" x1="0%" y1="100%" x2="100%" y2="0%">
      <stop offset="0%" style="stop-color:#4facfe;stop-opacity:1" />
      <stop offset="100%" style="stop-color:#00f2fe;stop-opacity:1" />
    </linearGradient>
  </defs>
  
  <!-- Background circle -->
  <circle cx="50" cy="50" r="48" fill="url(#grad1)"/>
  
  <!-- Building/BIM icon -->
  <!-- Base structure -->
  <rect x="25" y="55" width="15" height="30" fill="white" opacity="0.9"/>
  <rect x="45" y="45" width="15" height="40" fill="white" opacity="0.95"/>
  <rect x="65" y="50" width="15" height="35" fill="white" opacity="0.9"/>
  
  <!-- Windows -->
  <rect x="28" y="60" width="3" height="4" fill="url(#grad1)"/>
  <rect x="34" y="60" width="3" height="4" fill="url(#grad1)"/>
  <rect x="28" y="68" width="3" height="4" fill="url(#grad1)"/>
  <rect x="34" y="68" width="3" height="4" fill="url(#grad1)"/>
  <rect x="28" y="76" width="3" height="4" fill="url(#grad1)"/>
  <rect x="34" y="76" width="3" height="4" fill="url(#grad1)"/>
  
  <rect x="48" y="50" width="3" height="4" fill="url(#grad1)"/>
  <rect x="54" y="50" width="3" height="4" fill="url(#grad1)"/>
  <rect x="48" y="58" width="3" height="4" fill="url(#grad1)"/>
  <rect x="54" y="58" width="3" height="4" fill="url(#grad1)"/>
  <rect x="48" y="66" width="3" height="4" fill="url(#grad1)"/>
  <rect x="54" y="66" width="3" height="4" fill="url(#grad1)"/>
  <rect x="48" y="74" width="3" height="4" fill="url(#grad1)"/>
  <rect x="54" y="74" width="3" height="4" fill="url(#grad1)"/>
  
  <rect x="68" y="55" width="3" height="4" fill="url(#grad1)"/>
  <rect x="74" y="55" width="3" height="4" fill="url(#grad1)"/>
  <rect x="68" y="63" width="3" height="4" fill="url(#grad1)"/>
  <rect x="74" y="63" width="3" height="4" fill="url(#grad1)"/>
  <rect x="68" y="71" width="3" height="4" fill="url(#grad1)"/>
  <rect x="74" y="71" width="3" height="4" fill="url(#grad1)"/>
  
  <!-- Code brackets for developer aspect -->
  <path d="M 20 25 L 15 30 L 20 35" stroke="white" stroke-width="2.5" fill="none" stroke-linecap="round"/>
  <path d="M 80 25 L 85 30 L 80 35" stroke="white" stroke-width="2.5" fill="none" stroke-linecap="round"/>
  
  <!-- Digital/Tech element - small dots -->
  <circle cx="35" cy="20" r="1.5" fill="white" opacity="0.8"/>
  <circle cx="50" cy="18" r="1.5" fill="white" opacity="0.8"/>
  <circle cx="65" cy="20" r="1.5" fill="white" opacity="0.8"/>
</svg>
